<svg width="24" height="24" viewBox="0 0 24 24" fill="none" xmlns="http://www.w3.org/2000/svg">
<g clip-path="url(#clip0_6_111)">
<path fill-rule="evenodd" clip-rule="evenodd" d="M15.7071 15.707C15.5196 15.8945 15.2653 15.9998 15.0001 15.9998C14.7349 15.9998 14.4806 15.8945 14.2931 15.707L8.6361 10.05C8.54059 9.95776 8.46441 9.84742 8.412 9.72541C8.35959 9.60341 8.332 9.47219 8.33085 9.33941C8.32969 9.20663 8.355 9.07495 8.40528 8.95205C8.45556 8.82916 8.52981 8.7175 8.6237 8.62361C8.7176 8.52972 8.82925 8.45547 8.95214 8.40519C9.07504 8.3549 9.20672 8.3296 9.3395 8.33076C9.47228 8.33191 9.6035 8.3595 9.7255 8.41191C9.84751 8.46431 9.95785 8.5405 10.0501 8.63601L15.0001 13.586L19.9501 8.63601C20.1387 8.45385 20.3913 8.35305 20.6535 8.35533C20.9157 8.35761 21.1665 8.46278 21.3519 8.64819C21.5373 8.8336 21.6425 9.08441 21.6448 9.34661C21.6471 9.6088 21.5463 9.86141 21.3641 10.05L15.7071 15.707Z" fill="black"/>
</g>
<defs>
<clipPath id="clip0_6_111">
<rect width="24" height="24" fill="white"/>
</clipPath>
</defs>
</svg>
