<svg width="48" height="48" viewBox="0 0 48 48" fill="none" xmlns="http://www.w3.org/2000/svg">
<path fill-rule="evenodd" clip-rule="evenodd" d="M24.0001 2.5C21.4806 2.5 19.0642 3.50089 17.2826 5.28249C15.501 7.06408 14.5001 9.48044 14.5001 12C14.5001 14.5196 15.501 16.9359 17.2826 18.7175C19.0642 20.4991 21.4806 21.5 24.0001 21.5C26.5197 21.5 28.936 20.4991 30.7176 18.7175C32.4992 16.9359 33.5001 14.5196 33.5001 12C33.5001 9.48044 32.4992 7.06408 30.7176 5.28249C28.936 3.50089 26.5197 2.5 24.0001 2.5ZM17.5001 12C17.5001 10.2761 18.1849 8.62279 19.4039 7.40381C20.6229 6.18482 22.2762 5.5 24.0001 5.5C25.724 5.5 27.3773 6.18482 28.5963 7.40381C29.8153 8.62279 30.5001 10.2761 30.5001 12C30.5001 13.7239 29.8153 15.3772 28.5963 16.5962C27.3773 17.8152 25.724 18.5 24.0001 18.5C22.2762 18.5 20.6229 17.8152 19.4039 16.5962C18.1849 15.3772 17.5001 13.7239 17.5001 12ZM24.0001 24.5C19.3741 24.5 15.1101 25.552 11.9521 27.328C8.84011 29.08 6.50011 31.732 6.50011 35V35.204C6.49811 37.528 6.49611 40.444 9.05411 42.528C10.3121 43.552 12.0741 44.282 14.4541 44.762C16.8381 45.246 19.9481 45.5 24.0001 45.5C28.0521 45.5 31.1601 45.246 33.5481 44.762C35.9281 44.282 37.6881 43.552 38.9481 42.528C41.5061 40.444 41.5021 37.528 41.5001 35.204V35C41.5001 31.732 39.1601 29.08 36.0501 27.328C32.8901 25.552 28.6281 24.5 24.0001 24.5ZM9.50011 35C9.50011 33.298 10.7441 31.45 13.4221 29.944C16.0541 28.464 19.7901 27.5 24.0021 27.5C28.2101 27.5 31.9461 28.464 34.5781 29.944C37.2581 31.45 38.5001 33.298 38.5001 35C38.5001 37.616 38.4201 39.088 37.0521 40.2C36.3121 40.804 35.0721 41.394 32.9521 41.822C30.8381 42.25 27.9481 42.5 24.0001 42.5C20.0521 42.5 17.1601 42.25 15.0481 41.822C12.9281 41.394 11.6881 40.804 10.9481 40.202C9.58011 39.088 9.50011 37.616 9.50011 35Z" fill="url(#paint0_linear_6_109)"/>
<defs>
<linearGradient id="paint0_linear_6_109" x1="24.0001" y1="2.5" x2="24.0001" y2="45.5" gradientUnits="userSpaceOnUse">
<stop stop-color="#E31C64"/>
<stop offset="1" stop-color="#BE1BE7"/>
</linearGradient>
</defs>
</svg>
